<svg width="198" height="198" viewBox="0 0 198 198" fill="none" xmlns="http://www.w3.org/2000/svg">
<path d="M125.703 139.151L114.729 185.975L163.114 197.315L174.089 150.491L125.703 139.151ZM127.25 141.624L171.603 152.019L161.567 194.84L117.214 184.445L127.25 141.624ZM136.271 169.6L133.267 175.221C133.195 175.387 133.125 175.402 132.928 175.356L129.967 174.662C129.763 174.614 129.746 174.543 129.831 174.324L140.22 155.764C140.407 155.428 140.544 155.123 140.809 154.137C140.84 154.003 140.926 153.958 141.029 153.983L145.25 154.972C145.385 155.003 145.447 155.051 145.44 155.222L146.795 178.333C146.796 178.506 146.734 178.591 146.57 178.553L143.246 177.774C143.072 177.733 142.988 177.672 142.987 177.531L142.731 171.112L136.265 169.597L136.271 169.6ZM142.656 167.666C142.608 165.32 142.413 160.162 142.467 157.7L142.428 157.691C141.455 159.928 139.454 163.641 137.901 166.551L142.656 167.666ZM154.336 158.669C154.638 157.379 155.714 156.831 156.88 157.104C158.109 157.392 158.749 158.416 158.463 159.636C158.154 160.957 157.117 161.482 155.88 161.192C154.675 160.91 154.018 159.989 154.328 158.667L154.336 158.669ZM153.498 163.271C153.534 163.115 153.613 163.067 153.777 163.106L156.944 163.848C157.125 163.89 157.172 163.968 157.132 164.139L153.429 179.937C153.391 180.101 153.345 180.157 153.14 180.109L150.021 179.378C149.817 179.33 149.776 179.22 149.814 179.057L153.513 163.273L153.498 163.271Z" fill="black"/>
<path d="M56.3398 28.4657C55.614 26.4401 55.7344 24.205 56.6745 22.252C57.6146 20.2989 59.2974 18.788 61.3527 18.0515C63.408 17.315 65.6675 17.4133 67.6341 18.3248C69.6006 19.2363 71.1132 20.8863 71.839 22.9118C72.5648 24.9373 72.4444 27.1725 71.5043 29.1255C70.5642 31.0786 68.8814 32.5895 66.8261 33.326C64.7708 34.0625 62.5113 33.9642 60.5448 33.0527C58.5782 32.1412 57.0657 30.4912 56.3398 28.4657ZM46.5555 49.9679C45.8297 47.9424 45.9501 45.7073 46.8902 43.7542C47.8303 41.8012 49.5131 40.2902 51.5684 39.5537L59.318 36.7768L62.0547 44.4141C62.7805 46.4396 62.6601 48.6748 61.72 50.6278C60.7799 52.5808 59.0971 54.0918 57.0418 54.8283C54.9865 55.5648 52.727 55.4665 50.7604 54.555C48.7939 53.6435 47.2813 51.9935 46.5555 49.9679ZM48.1298 5.55386L53.6032 20.8284L61.3527 18.0515C63.408 17.315 65.0909 15.804 66.031 13.851C66.9711 11.8979 67.0914 9.6628 66.3656 7.63727C65.6398 5.61174 64.1273 3.96174 62.1607 3.05025C60.1941 2.13876 57.9347 2.04044 55.8794 2.77693L48.1298 5.55386ZM35.3673 18.745C36.0931 20.7705 37.6057 22.4205 39.5722 23.332C41.5388 24.2435 43.7983 24.3418 45.8536 23.6053L53.6032 20.8284L48.1298 5.55386L40.3802 8.3308C38.3249 9.06728 36.6421 10.5782 35.702 12.5313C34.7619 14.4843 34.6415 16.7195 35.3673 18.745ZM40.8407 34.0195C41.5665 36.0451 43.079 37.6951 45.0456 38.6066C47.0122 39.518 49.5131 40.2902 51.5684 39.5537L59.318 36.7768L53.6032 20.8284L45.8536 23.6053C43.7983 24.3418 42.1154 25.8528 41.1753 27.8058C40.2352 29.7589 40.1149 31.994 40.8407 34.0195Z" fill="black"/>
<path d="M0 126.339L8.5476 171.538L54.7291 162.804L46.1815 117.605L0 126.339ZM2.28896 127.906L44.6215 119.901L52.4384 161.236L10.1059 169.241L2.28896 127.906ZM13.1634 134.814C13.1391 134.685 13.392 134.537 13.5493 134.507C15.189 134.124 16.8371 133.779 18.4923 133.47C23.8292 132.461 26.4581 135.004 27.1688 138.762C28.0978 143.675 24.9486 146.451 20.6032 147.273C19.8672 147.412 19.6119 147.421 19.101 147.518L20.5051 154.943C20.535 155.101 20.4873 155.18 20.33 155.21L17.3527 155.773C17.1954 155.803 17.1233 155.753 17.0934 155.595L13.1634 134.814ZM18.5174 144.432C18.9662 144.378 19.3198 144.312 20.0861 144.167C22.3331 143.742 24.3019 142.541 23.7241 139.486C23.2603 137.033 21.5067 136.075 18.9364 136.561C18.1773 136.705 17.4542 136.873 17.1064 136.971L18.5174 144.432ZM34.6482 138.997C33.1228 139.285 32.7574 140.151 32.8774 140.786C33.01 141.487 33.4465 141.898 35.6825 142.569C38.9757 143.471 40.1935 144.686 40.5858 146.76C41.1694 149.846 39.131 151.951 35.9589 152.551C34.2747 152.87 32.7731 152.786 31.8563 152.467C31.725 152.429 31.6763 152.338 31.6462 152.178L31.1097 149.342C31.0741 149.153 31.1522 149.068 31.2978 149.143C32.5917 149.677 34.0121 149.821 35.3854 149.558C36.9108 149.27 37.4229 148.516 37.2591 147.649C37.1265 146.948 36.5692 146.428 34.4441 145.775C31.4597 144.979 30.0641 143.86 29.6416 141.626C29.1706 139.135 30.7193 136.701 34.079 136.066C35.7329 135.753 36.946 135.789 37.6382 135.948C37.8141 136.017 37.8743 136.169 37.8987 136.298L38.3995 138.946C38.4294 139.104 38.3499 139.221 38.1494 139.189C37.1965 138.845 35.8724 138.759 34.6399 138.992L34.6482 138.997Z" fill="black"/>
<path d="M151.417 67.8437C149.846 74.2744 148.972 76.4459 143.768 76.8613C162.034 82.7595 164.156 69.9795 164.156 69.9795L158.535 65.1737C158.535 65.1737 153.249 64.5554 151.417 67.8437ZM193.401 29.8454C191.811 28.4862 189.373 29.7529 189.373 29.7529C185.752 30.7849 166.987 52.9607 166.987 52.9607L174.856 59.6887C174.856 59.6887 193.701 37.5809 194.142 33.8305C194.131 33.8208 194.99 31.194 193.401 29.8454ZM160.451 62.9297L166.072 67.7355L172.94 61.9328L165.071 55.2047L160.451 62.9297Z" fill="black"/>
</svg>
